<mxfile host="app.diagrams.net" modified="2024-02-19T07:36:20.533Z" agent="Mozilla/5.0 (Macintosh; Intel Mac OS X 10_15_7) AppleWebKit/537.36 (KHTML, like Gecko) Chrome/121.0.0.0 Safari/537.36" etag="hfzuoFZurI6ab23lVAfU" version="22.1.21" type="github">
  <diagram name="第 1 页" id="8CkQSImnR_3H1WW3mYVL">
    <mxGraphModel dx="1434" dy="647" grid="1" gridSize="10" guides="1" tooltips="1" connect="1" arrows="1" fold="1" page="1" pageScale="1" pageWidth="827" pageHeight="1169" math="0" shadow="0">
      <root>
        <mxCell id="0" />
        <mxCell id="1" parent="0" />
        <mxCell id="soWNtq6E41yRjzi2BO8w-3" value="&lt;font style=&quot;font-size: 15px;&quot;&gt;i2iRecallHandlerA&lt;/font&gt;&lt;br&gt;handlerName:&amp;nbsp;&lt;font color=&quot;#ff3333&quot;&gt;i2iRecallHandler&lt;/font&gt;" style="text;html=1;strokeColor=none;fillColor=none;align=center;verticalAlign=middle;whiteSpace=wrap;rounded=0;labelBackgroundColor=none;fontColor=#46495D;" parent="1" vertex="1">
          <mxGeometry x="90" y="460" width="180" height="30" as="geometry" />
        </mxCell>
        <mxCell id="soWNtq6E41yRjzi2BO8w-6" value="" style="rounded=0;whiteSpace=wrap;html=1;fillColor=none;labelBackgroundColor=none;strokeColor=#788AA3;fontColor=#46495D;" parent="1" vertex="1">
          <mxGeometry x="80" y="445" width="190" height="185" as="geometry" />
        </mxCell>
        <mxCell id="soWNtq6E41yRjzi2BO8w-8" value="&lt;span style=&quot;color: rgb(0, 0, 0); font-family: Helvetica; font-size: 12px; font-style: normal; font-variant-ligatures: normal; font-variant-caps: normal; font-weight: 400; letter-spacing: normal; orphans: 2; text-align: center; text-indent: 0px; text-transform: none; widows: 2; word-spacing: 0px; -webkit-text-stroke-width: 0px; background-color: rgb(251, 251, 251); text-decoration-thickness: initial; text-decoration-style: initial; text-decoration-color: initial; float: none; display: inline !important;&quot;&gt;i2iRecallHandler&lt;/span&gt;" style="rounded=1;whiteSpace=wrap;html=1;labelBackgroundColor=none;fillColor=#B2C9AB;strokeColor=#788AA3;fontColor=#46495D;" parent="1" vertex="1">
          <mxGeometry x="440" y="505" width="120" height="60" as="geometry" />
        </mxCell>
        <mxCell id="soWNtq6E41yRjzi2BO8w-11" value="" style="endArrow=classic;startArrow=classic;html=1;rounded=0;exitX=1;exitY=0.5;exitDx=0;exitDy=0;labelBackgroundColor=none;strokeColor=#788AA3;fontColor=default;" parent="1" edge="1">
          <mxGeometry width="50" height="50" relative="1" as="geometry">
            <mxPoint x="270" y="535" as="sourcePoint" />
            <mxPoint x="440" y="530" as="targetPoint" />
          </mxGeometry>
        </mxCell>
        <mxCell id="soWNtq6E41yRjzi2BO8w-12" value="" style="endArrow=classic;startArrow=classic;html=1;rounded=0;exitX=1;exitY=0.5;exitDx=0;exitDy=0;labelBackgroundColor=none;strokeColor=#788AA3;fontColor=default;entryX=0;entryY=0.583;entryDx=0;entryDy=0;entryPerimeter=0;" parent="1" target="soWNtq6E41yRjzi2BO8w-8" edge="1">
          <mxGeometry width="50" height="50" relative="1" as="geometry">
            <mxPoint x="270" y="600" as="sourcePoint" />
            <mxPoint x="440" y="625" as="targetPoint" />
          </mxGeometry>
        </mxCell>
        <mxCell id="soWNtq6E41yRjzi2BO8w-13" value="配置" style="text;html=1;strokeColor=none;fillColor=none;align=center;verticalAlign=middle;whiteSpace=wrap;rounded=0;labelBackgroundColor=none;fontColor=#46495D;" parent="1" vertex="1">
          <mxGeometry x="145" y="410" width="60" height="30" as="geometry" />
        </mxCell>
        <mxCell id="soWNtq6E41yRjzi2BO8w-19" value="代码实例" style="text;html=1;strokeColor=none;fillColor=none;align=center;verticalAlign=middle;whiteSpace=wrap;rounded=0;labelBackgroundColor=none;fontColor=#46495D;" parent="1" vertex="1">
          <mxGeometry x="470" y="460" width="60" height="30" as="geometry" />
        </mxCell>
        <mxCell id="YuxFDKEDp-i3Clh_x-bE-1" value="" style="endArrow=classic;startArrow=classic;html=1;rounded=0;exitX=1;exitY=0.5;exitDx=0;exitDy=0;labelBackgroundColor=none;strokeColor=#788AA3;fontColor=default;entryX=0;entryY=0.25;entryDx=0;entryDy=0;" edge="1" parent="1" target="soWNtq6E41yRjzi2BO8w-8">
          <mxGeometry width="50" height="50" relative="1" as="geometry">
            <mxPoint x="270" y="477.5" as="sourcePoint" />
            <mxPoint x="440" y="472.5" as="targetPoint" />
          </mxGeometry>
        </mxCell>
        <mxCell id="YuxFDKEDp-i3Clh_x-bE-2" value="&lt;font style=&quot;font-size: 15px;&quot;&gt;i2iRecallHandlerB&lt;/font&gt;&lt;br&gt;handlerName:&amp;nbsp;&lt;font color=&quot;#ff3333&quot;&gt;i2iRecallHandler&lt;/font&gt;" style="text;html=1;strokeColor=none;fillColor=none;align=center;verticalAlign=middle;whiteSpace=wrap;rounded=0;labelBackgroundColor=none;fontColor=#46495D;" vertex="1" parent="1">
          <mxGeometry x="90" y="520" width="180" height="30" as="geometry" />
        </mxCell>
        <mxCell id="YuxFDKEDp-i3Clh_x-bE-3" value="&lt;font style=&quot;font-size: 15px;&quot;&gt;i2iRecallHandlerC&lt;/font&gt;&lt;br&gt;handlerName:&amp;nbsp;&lt;font color=&quot;#ff3333&quot;&gt;i2iRecallHandler&lt;/font&gt;" style="text;html=1;strokeColor=none;fillColor=none;align=center;verticalAlign=middle;whiteSpace=wrap;rounded=0;labelBackgroundColor=none;fontColor=#46495D;" vertex="1" parent="1">
          <mxGeometry x="90" y="585" width="180" height="30" as="geometry" />
        </mxCell>
      </root>
    </mxGraphModel>
  </diagram>
</mxfile>
